<svg width="22" height="18" viewBox="0 0 22 18" fill="none" xmlns="http://www.w3.org/2000/svg">
<path fill-rule="evenodd" clip-rule="evenodd" d="M1.84375 0.6875C1.29147 0.6875 0.84375 1.13522 0.84375 1.6875C0.84375 2.23978 1.29147 2.6875 1.84375 2.6875H20.1562C20.7085 2.6875 21.1562 2.23978 21.1562 1.6875C21.1562 1.13522 20.7085 0.6875 20.1562 0.6875H1.84375ZM0.84375 9C0.84375 8.44772 1.29147 8 1.84375 8H20.1562C20.7085 8 21.1562 8.44772 21.1562 9C21.1562 9.55229 20.7085 10 20.1562 10H1.84375C1.29147 10 0.84375 9.55229 0.84375 9ZM0.84375 16.3125C0.84375 15.7602 1.29147 15.3125 1.84375 15.3125H20.1562C20.7085 15.3125 21.1562 15.7602 21.1562 16.3125C21.1562 16.8648 20.7085 17.3125 20.1562 17.3125H1.84375C1.29147 17.3125 0.84375 16.8648 0.84375 16.3125Z" fill="#17925A"/>
</svg>
