<svg width="22" height="18" viewBox="0 0 22 18" fill="none" xmlns="http://www.w3.org/2000/svg">
<path d="M4.70711 2.70711C4.31659 2.31658 3.68341 2.31658 3.29289 2.70711C2.90237 3.09763 2.90237 3.7308 3.29289 4.12132L9.0604 9.88882L3.29325 15.656C2.90272 16.0465 2.90273 16.6797 3.29325 17.0702C3.68378 17.4607 4.31693 17.4607 4.70747 17.0702L10.4746 11.303L16.2418 17.0702C16.6323 17.4607 17.2654 17.4607 17.656 17.0702C18.0465 16.6797 18.0465 16.0465 17.656 15.656L11.8888 9.88882L17.6563 4.12132C18.0468 3.7308 18.0469 3.09763 17.6563 2.70711C17.2658 2.31658 16.6326 2.31658 16.2421 2.70711L10.4746 8.47461L4.70711 2.70711Z" fill="#17925A"/>
</svg>
